# xmcd
#
# Track frame offsets:
#	150
#	2922
#	19356
#	34445
#	49272
#	63438
#	81402
#	97807
#	113147
#	133702
#	152268
#	169889
#
# Disc length: 2462 seconds
#
# Revision: 2883686
# Processed by: cddbd v1.5.2PL0 Copyright (c) Steve Scherf et al.
# Submitted via: EZCDAudioConverter 9.0.2.1
#
DISCID=9a099c0c
DTITLE=Josh Turner - Punching Bag
DYEAR=2012
DGENRE=Country
TTITLE0=Introduction
TTITLE1=Punching Bag
TTITLE2=Time Is Love
TTITLE3=Deeper Than My Love
TTITLE4=Good Problem
TTITLE5=Cold Shoulder
TTITLE6=Find Me A Baby
TTITLE7=Whatcha Reckon
TTITLE8=Pallbearer
TTITLE9=For The Love Of God
TTITLE10=I Was There
TTITLE11=Left Hand Man
EXTD=
EXTT0=
EXTT1=
EXTT2=
EXTT3=
EXTT4=
EXTT5=
EXTT6=
EXTT7=
EXTT8=
EXTT9=
EXTT10=
EXTT11=
PLAYORDER=
